<?xml version="1.0" encoding="utf-8"?>
<!-- Generator: Adobe Illustrator 24.0.1, SVG Export Plug-In . SVG Version: 6.00 Build 0)  -->
<svg version="1.1" id="Layer_1" xmlns="http://www.w3.org/2000/svg" xmlns:xlink="http://www.w3.org/1999/xlink" x="0px" y="0px"
	 viewBox="0 0 2500 2500" style="enable-background:new 0 0 2500 2500;" xml:space="preserve">
<style type="text/css">
	.st0{display:none;fill:none;}
	.st1{enable-background:new    ;}
	.st2{fill:#17457C;}
	.st3{fill:#123762;}
	.st4{fill:#2A79BA;}
	.st5{fill:#194970;}
	.st6{fill:#205C8D;}
	.st7{fill:#164378;}
	.st8{fill:#11345D;}
	.st9{fill:#1D589E;}
	.st10{fill:#2A6E98;}
	.st11{fill:#1F506E;}
	.st12{fill:#3488BC;}
	.st13{fill:#BFBFBF;}
	.st14{opacity:5.098039e-02;}
	.st15{fill:#FFFFFF;}
	.st16{clip-path:url(#SVGID_2_);}
	.st17{clip-path:url(#SVGID_6_);}
	.st18{clip-path:url(#SVGID_10_);}
	.st19{clip-path:url(#SVGID_14_);}
	.st20{clip-path:url(#SVGID_18_);}
	.st21{clip-path:url(#SVGID_22_);}
	.st22{clip-path:url(#SVGID_26_);}
	.st23{clip-path:url(#SVGID_30_);}
	.st24{fill:#F2F2F2;}
	.st25{clip-path:url(#SVGID_34_);}
	.st26{clip-path:url(#SVGID_38_);}
	.st27{clip-path:url(#SVGID_42_);}
	.st28{clip-path:url(#SVGID_46_);}
</style>
<path class="st0" d="M0,0h2500v2500H0V0z"/>
<g>
	<g>
		<g class="st1">
			<g>
				<polygon class="st2" points="1259.8,2311.8 1237,2299.4 1800.1,2056.8 1822.9,2069.2 				"/>
			</g>
			<g>
				<polygon class="st3" points="1822.9,2069.2 1800.1,2056.8 1932.8,520.1 1955.6,532.5 				"/>
			</g>
			<g>
				<polygon class="st4" points="1955.6,532.5 1822.9,2069.2 1259.8,2311.8 1263,629.8 				"/>
			</g>
			<g>
				<polygon class="st5" points="1259.8,2311.8 1237,2299.4 1240.2,617.4 1263,629.8 				"/>
			</g>
			<g>
				<polygon class="st6" points="1263,629.8 1240.2,617.4 1932.8,520.1 1955.6,532.5 				"/>
			</g>
			<g>
				<polygon class="st7" points="570.3,727.2 547.5,714.8 1240.2,617.4 1263,629.8 				"/>
			</g>
			<g>
				<polygon class="st8" points="697.4,2227.4 674.6,2215 547.5,714.8 570.3,727.2 				"/>
			</g>
			<g>
				<polygon class="st9" points="1955.6,532.5 1822.9,2069.2 1259.8,2311.8 697.4,2227.4 570.3,727.2 1263,629.8 1259.8,2311.8 
					1822.9,2069.2 				"/>
			</g>
		</g>
	</g>
</g>
<g>
	<g>
		<g class="st1">
			<g>
				<polygon class="st10" points="1300.6,754.6 1277.8,742.2 1848.9,662 1871.7,674.4 				"/>
			</g>
			<g>
				<polygon class="st11" points="1297.9,2217.4 1275.1,2205 1277.8,742.2 1300.6,754.6 				"/>
			</g>
			<g>
				<polygon class="st12" points="1300.6,754.6 1871.7,674.4 1760.5,2013.2 1297.9,2217.4 				"/>
			</g>
		</g>
	</g>
</g>
<path d="M891.2,357v-94.1h137.3V159.9H788.2v291h240.2V357H891.2z M1275.3,262.9h96V159.9h-240.2v102.9c32.1,32.1,48.9,47.5,95.4,94
	c-27.2,0-95.4,0.1-95.4,0.1v93.9h240.2V357L1275.3,262.9L1275.3,262.9z M1615.8,262.9h96V159.9h-240.2v102.9
	c32.1,32.1,48.9,47.5,95.4,94c-27.2,0-95.4,0.1-95.4,0.1v93.9h240.2V357L1615.8,262.9L1615.8,262.9z"/>
<g>
	
		<image style="overflow:visible;opacity:0.52;" width="916" height="1154" xlink:href="5280B05A.png"  transform="matrix(1 0 0 1 802 864)">
	</image>
	<g>
		<g class="st1">
			<g>
				<polygon class="st13" points="1489.8,1708.2 1476.2,1700.8 1490,1459.9 1503.6,1467.3 				"/>
			</g>
			<g>
				<polygon class="st13" points="1294.7,1995.2 1281,1987.7 1280.7,1787.6 1294.4,1795 				"/>
			</g>
			<g>
				<polygon class="st13" points="1294.4,1795 1280.7,1787.6 1476.2,1700.8 1489.8,1708.2 				"/>
			</g>
			<g>
				<polygon class="st13" points="1103.6,1770.7 1089.9,1763.3 1278.8,1788.2 1292.5,1795.7 				"/>
			</g>
			<g>
				<polygon class="st13" points="1288.3,1795 1274.7,1787.5 1279.1,1788.1 1292.8,1795.5 				"/>
			</g>
			<g>
				<polygon class="st13" points="1292.5,1795.7 1278.8,1788.2 1280.7,1787.6 1294.4,1795 				"/>
			</g>
			<g>
				<polygon class="st14" points="1292.8,1795.5 1279.1,1788.1 1280.7,1787.4 1294.4,1794.8 				"/>
			</g>
			<g>
				<polygon class="st14" points="1292.8,1795.5 1294.4,1794.8 1294.4,1795 1293.1,1795.6 				"/>
			</g>
			<g>
				<polygon class="st13" points="1294.3,1315.5 1280.6,1308 1281.6,1307.9 1295.3,1315.3 				"/>
			</g>
			<g>
				<polygon class="st13" points="1295.3,1315.3 1281.6,1307.9 1681.2,1251.7 1694.9,1259.2 				"/>
			</g>
			<g>
				<polygon class="st15" points="1295.3,1314.9 1281.6,1307.5 1696.2,1058.1 1709.9,1065.5 				"/>
			</g>
			<g>
				<polygon class="st13" points="1319.1,1120.4 1305.4,1113 1696.2,1058.1 1709.8,1065.5 				"/>
			</g>
			<g>
				<polygon class="st13" points="1319.1,1120.4 1305.4,1113 1713.7,872.3 1727.4,879.7 				"/>
			</g>
			<g>
				<polygon class="st13" points="1319.1,1120.4 1305.4,1113 1713.7,872.3 1727.4,879.7 				"/>
			</g>
			<g>
				<polygon class="st15" points="1727.4,879.7 1713.7,872.3 1713.7,872.3 1727.4,879.7 				"/>
			</g>
			<g>
				<polygon class="st15" points="1727.4,879.7 1727.4,879.7 1727.4,879.7 				"/>
			</g>
			<g>
				<polygon class="st13" points="1712.2,888.7 1696.2,1058.1 1709.9,1065.5 1727.4,879.7 				"/>
			</g>
			<g>
				<polygon class="st13" points="1104.2,1770.6 1090.5,1763.2 1274.7,1787.5 1288.3,1795 				"/>
			</g>
			<g>
				<polygon class="st13" points="1294.9,1495.9 1295.3,1315.3 1694.9,1259.2 1648,1834.3 1374.5,1958.8 1294.7,1995.2 1294.4,1795 
					1489.8,1708.2 1503.6,1467.3 				"/>
				<g class="st1">
					<defs>
						<polygon id="SVGID_1_" class="st1" points="1294.9,1495.9 1295.3,1315.3 1694.9,1259.2 1648,1834.3 1374.5,1958.8 
							1294.7,1995.2 1294.4,1795 1489.8,1708.2 1503.6,1467.3 						"/>
					</defs>
					<clipPath id="SVGID_2_">
						<use xlink:href="#SVGID_1_"  style="overflow:visible;"/>
					</clipPath>
					<g class="st16">
						<g>
							<g>
								<defs>
									<polyline id="SVGID_3_" points="1648,1834.3 1374.5,1958.8 1294.7,1995.2 1294.4,1795 1489.8,1708.2 1503.6,1467.3 
										1294.9,1495.9 1295.3,1315.3 1694.9,1259.2 1648,1834.3 									"/>
								</defs>
								<clipPath id="SVGID_4_">
									<use xlink:href="#SVGID_3_"  style="overflow:visible;"/>
								</clipPath>
								<g style="clip-path:url(#SVGID_4_);">
									
										<image style="overflow:visible;" width="401" height="736" xlink:href="5280B05E.png"  transform="matrix(1 0 0 1 1294.3844 1259.1887)">
									</image>
								</g>
							</g>
						</g>
					</g>
				</g>
			</g>
			<g>
				<polygon class="st14" points="905.5,1549.3 891.9,1541.9 1281.3,1488.5 1294.9,1495.9 				"/>
			</g>
			<g>
				<polygon class="st13" points="906.2,1549.2 892.5,1541.8 1280.6,1308 1294.3,1315.5 				"/>
			</g>
			<g>
				<polygon class="st13" points="906.1,1549 892.5,1541.5 1280.6,1308 1294.3,1315.5 				"/>
			</g>
			<g>
				<polygon class="st13" points="1294.9,1495.9 1281.3,1488.5 1281.6,1307.9 1295.3,1315.3 				"/>
			</g>
			<g>
				<polygon class="st14" points="939.8,1931.7 926.1,1924.3 1280.3,1987.6 1294,1995.1 				"/>
			</g>
			<g>
				<polygon class="st13" points="1103.6,1770.7 1089.9,1763.3 1078.7,1616.6 1092.4,1624 				"/>
			</g>
			<g>
				<polygon class="st13" points="917.4,1648.6 903.7,1641.1 1078.7,1616.5 1092.4,1624 				"/>
			</g>
			<g>
				<polygon class="st13" points="1092.4,1624 1078.7,1616.6 1079.4,1616.5 1093,1623.9 				"/>
			</g>
			<g>
				<polygon class="st13" points="1292.8,1795.5 1103.6,1770.7 1092.4,1624 1093,1623.9 1104.2,1770.6 1288.3,1795 				"/>
				<g class="st1">
					<defs>
						<polygon id="SVGID_5_" class="st1" points="1292.8,1795.5 1103.6,1770.7 1092.4,1624 1093,1623.9 1104.2,1770.6 1288.3,1795 
													"/>
					</defs>
					<clipPath id="SVGID_6_">
						<use xlink:href="#SVGID_5_"  style="overflow:visible;"/>
					</clipPath>
					<g class="st17">
						<g>
							<g>
								<defs>
									<polyline id="SVGID_7_" points="1292.8,1795.5 1103.6,1770.7 1092.4,1624 1093,1623.9 1104.2,1770.6 1288.3,1795 
										1292.8,1795.5 									"/>
								</defs>
								<clipPath id="SVGID_8_">
									<use xlink:href="#SVGID_7_"  style="overflow:visible;"/>
								</clipPath>
								<g style="clip-path:url(#SVGID_8_);">
									
										<image style="overflow:visible;" width="201" height="172" xlink:href="5280B059.png"  transform="matrix(1 0 0 1 1092.4104 1623.9042)">
									</image>
								</g>
							</g>
						</g>
					</g>
				</g>
			</g>
			<g>
				<polygon class="st13" points="1727.4,879.7 1709.9,1065.5 1319.1,1120.4 				"/>
				<g class="st1">
					<defs>
						<polygon id="SVGID_9_" class="st1" points="1727.4,879.7 1709.9,1065.5 1319.1,1120.4 						"/>
					</defs>
					<clipPath id="SVGID_10_">
						<use xlink:href="#SVGID_9_"  style="overflow:visible;"/>
					</clipPath>
					<g class="st18">
						<g>
							<g>
								<defs>
									<polyline id="SVGID_11_" points="1709.9,1065.5 1319.1,1120.4 1727.4,879.7 1709.9,1065.5 									"/>
								</defs>
								<clipPath id="SVGID_12_">
									<use xlink:href="#SVGID_11_"  style="overflow:visible;"/>
								</clipPath>
								<g style="clip-path:url(#SVGID_12_);">
									
										<image style="overflow:visible;" width="409" height="241" xlink:href="5280B05B.png"  transform="matrix(1 0 0 1 1319.0995 879.7427)">
									</image>
								</g>
							</g>
						</g>
					</g>
				</g>
			</g>
			<g>
				<polygon class="st13" points="1295.6,1134.3 1281.9,1126.9 1305.4,1113 1319.1,1120.4 				"/>
			</g>
			<g>
				<polygon class="st15" points="1295.3,1314.9 1295.6,1134.3 1295.3,1314.9 1294.3,1315.5 				"/>
			</g>
			<g>
				<polygon class="st13" points="1295.3,1314.9 1281.6,1307.5 1281.9,1126.9 1295.6,1134.3 				"/>
			</g>
			<g>
				<polygon class="st13" points="1295.6,1134.3 1319.1,1120.4 1709.8,1065.5 1295.3,1314.9 				"/>
				<g class="st1">
					<defs>
						<polygon id="SVGID_13_" class="st1" points="1295.6,1134.3 1319.1,1120.4 1709.8,1065.5 1295.3,1314.9 						"/>
					</defs>
					<clipPath id="SVGID_14_">
						<use xlink:href="#SVGID_13_"  style="overflow:visible;"/>
					</clipPath>
					<g class="st19">
						<g>
							<g>
								<defs>
									<polyline id="SVGID_15_" points="1295.3,1314.9 1295.6,1134.3 1319.1,1120.4 1319.1,1120.4 1709.8,1065.5 1295.3,1314.9 
																			"/>
								</defs>
								<clipPath id="SVGID_16_">
									<use xlink:href="#SVGID_15_"  style="overflow:visible;"/>
								</clipPath>
								<g style="clip-path:url(#SVGID_16_);">
									
										<image style="overflow:visible;" width="415" height="250" xlink:href="5280B058.png"  transform="matrix(1 0 0 1 1295.2791 1065.5298)">
									</image>
								</g>
							</g>
						</g>
					</g>
				</g>
			</g>
			<g>
				<polygon class="st15" points="1295.6,1134.3 1281.9,1126.9 1305.4,1113 1319.1,1120.4 				"/>
			</g>
			<g>
				<polygon class="st15" points="1295.3,1314.9 1281.6,1307.5 1281.9,1126.9 1295.6,1134.3 				"/>
			</g>
			<g>
				<polygon class="st13" points="1292.5,1795.7 1294.4,1795 1294,1995.1 939.8,1931.7 917.4,1648.6 1092.4,1624 1103.6,1770.7 				
					"/>
				<g class="st1">
					<defs>
						<polygon id="SVGID_17_" class="st1" points="1292.5,1795.7 1294.4,1795 1294,1995.1 939.8,1931.7 917.4,1648.6 1092.4,1624 
							1103.6,1770.7 						"/>
					</defs>
					<clipPath id="SVGID_18_">
						<use xlink:href="#SVGID_17_"  style="overflow:visible;"/>
					</clipPath>
					<g class="st20">
						<g>
							<g>
								<defs>
									<polyline id="SVGID_19_" points="1294,1995.1 939.8,1931.7 917.4,1648.6 1092.4,1624 1103.6,1770.7 1292.5,1795.7 
										1294.4,1795 1294,1995.1 									"/>
								</defs>
								<clipPath id="SVGID_20_">
									<use xlink:href="#SVGID_19_"  style="overflow:visible;"/>
								</clipPath>
								<g style="clip-path:url(#SVGID_20_);">
									
										<image style="overflow:visible;" width="377" height="372" xlink:href="5280B066.png"  transform="matrix(1 0 0 1 917.4107 1623.9868)">
									</image>
								</g>
							</g>
						</g>
					</g>
				</g>
			</g>
			<g>
				<polygon class="st13" points="939.8,1931.7 926.1,1924.3 903.7,1641.1 917.4,1648.6 				"/>
			</g>
			<g>
				<polygon class="st14" points="916.8,1648.7 939.8,1931.7 1294,1995.1 939.2,1931.8 				"/>
			</g>
			<g>
				<polygon class="st14" points="939.2,1931.8 925.5,1924.4 903.1,1641.2 916.8,1648.7 				"/>
			</g>
			<g>
				<polygon class="st13" points="1296,940.4 1727.4,879.7 1319.1,1120.4 1295.6,1123.7 				"/>
				<g class="st1">
					<defs>
						<polygon id="SVGID_21_" class="st1" points="1296,940.4 1727.4,879.7 1319.1,1120.4 1295.6,1123.7 						"/>
					</defs>
					<clipPath id="SVGID_22_">
						<use xlink:href="#SVGID_21_"  style="overflow:visible;"/>
					</clipPath>
					<g class="st21">
						<g>
							<g>
								<defs>
									<polyline id="SVGID_23_" points="1319.1,1120.4 1295.6,1123.7 1296,940.4 1727.4,879.7 1319.1,1120.4 									"/>
								</defs>
								<clipPath id="SVGID_24_">
									<use xlink:href="#SVGID_23_"  style="overflow:visible;"/>
								</clipPath>
								<g style="clip-path:url(#SVGID_24_);">
									
										<image style="overflow:visible;" width="432" height="244" xlink:href="5280B069.png"  transform="matrix(1 0 0 1 1295.6327 879.7455)">
									</image>
								</g>
							</g>
						</g>
					</g>
				</g>
			</g>
			<g>
				<polygon class="st13" points="1295.6,1123.7 1282,1116.3 1282.3,932.9 1296,940.4 				"/>
			</g>
			<g>
				<polygon class="st13" points="877.6,1182.5 856.9,1002.1 1296,940.4 1295.6,1123.7 				"/>
				<g class="st1">
					<defs>
						<polygon id="SVGID_25_" class="st1" points="877.6,1182.5 856.9,1002.1 1296,940.4 1295.6,1123.7 						"/>
					</defs>
					<clipPath id="SVGID_26_">
						<use xlink:href="#SVGID_25_"  style="overflow:visible;"/>
					</clipPath>
					<g class="st22">
						<g>
							<g>
								<defs>
									<polyline id="SVGID_27_" points="1295.6,1123.7 877.6,1182.5 856.9,1002.1 1296,940.4 1295.6,1123.7 									"/>
								</defs>
								<clipPath id="SVGID_28_">
									<use xlink:href="#SVGID_27_"  style="overflow:visible;"/>
								</clipPath>
								<g style="clip-path:url(#SVGID_28_);">
									
										<image style="overflow:visible;" width="440" height="243" xlink:href="5280B06A.png"  transform="matrix(1 0 0 1 856.9315 940.3724)">
									</image>
								</g>
							</g>
						</g>
					</g>
				</g>
			</g>
			<g>
				<polygon class="st13" points="1296,940.4 1282.3,932.9 1713.7,872.3 1727.4,879.7 				"/>
			</g>
			<g>
				<polygon class="st13" points="906.2,1549.2 1294.3,1315.5 1295.3,1315.3 1294.9,1495.9 				"/>
				<g class="st1">
					<defs>
						<polygon id="SVGID_29_" class="st1" points="906.2,1549.2 1294.3,1315.5 1295.3,1315.3 1294.9,1495.9 						"/>
					</defs>
					<clipPath id="SVGID_30_">
						<use xlink:href="#SVGID_29_"  style="overflow:visible;"/>
					</clipPath>
					<g class="st23">
						<g>
							<g>
								<defs>
									<polyline id="SVGID_31_" points="1294.9,1495.9 906.2,1549.2 1294.3,1315.5 1295.3,1315.3 1294.9,1495.9 									"/>
								</defs>
								<clipPath id="SVGID_32_">
									<use xlink:href="#SVGID_31_"  style="overflow:visible;"/>
								</clipPath>
								<g style="clip-path:url(#SVGID_32_);">
									
										<image style="overflow:visible;" width="390" height="234" xlink:href="5280B068.png"  transform="matrix(1 0 0 1 906.1512 1315.3441)">
									</image>
								</g>
							</g>
						</g>
					</g>
				</g>
			</g>
			<g>
				<polygon class="st24" points="905.5,1549.3 891.9,1541.9 892.5,1541.5 906.1,1549 				"/>
			</g>
			<g>
				<polygon class="st13" points="906.1,1549 893.1,1371.9 1294.3,1315.5 				"/>
				<g class="st1">
					<defs>
						<polygon id="SVGID_33_" class="st1" points="906.1,1549 893.1,1371.9 1294.3,1315.5 						"/>
					</defs>
					<clipPath id="SVGID_34_">
						<use xlink:href="#SVGID_33_"  style="overflow:visible;"/>
					</clipPath>
					<g class="st25">
						<g>
							<g>
								<defs>
									<polyline id="SVGID_35_" points="906.1,1549 893.1,1371.9 1294.3,1315.5 906.1,1549 									"/>
								</defs>
								<clipPath id="SVGID_36_">
									<use xlink:href="#SVGID_35_"  style="overflow:visible;"/>
								</clipPath>
								<g style="clip-path:url(#SVGID_36_);">
									
										<image style="overflow:visible;" width="402" height="234" xlink:href="EC997D5D.png"  transform="matrix(1 0 0 1 893.1232 1315.4824)">
									</image>
								</g>
							</g>
						</g>
					</g>
				</g>
			</g>
			<g>
				<polygon class="st13" points="893.1,1371.9 879.4,1364.4 1280.6,1308 1294.3,1315.5 				"/>
			</g>
			<g>
				<polygon class="st13" points="892.5,1372 878.8,1364.5 879.4,1364.4 893.1,1371.9 				"/>
			</g>
			<g>
				<polygon class="st13" points="892.5,1372 878.8,1364.5 1281.9,1126.9 1295.6,1134.3 				"/>
			</g>
			<g>
				<polygon class="st13" points="905.5,1549.3 892.5,1372 1295.6,1134.3 892.5,1372 				"/>
				<g class="st1">
					<defs>
						<polygon id="SVGID_37_" class="st1" points="905.5,1549.3 892.5,1372 1295.6,1134.3 892.5,1372 						"/>
					</defs>
					<clipPath id="SVGID_38_">
						<use xlink:href="#SVGID_37_"  style="overflow:visible;"/>
					</clipPath>
					<g class="st26">
						<g>
							<g>
								<defs>
									<polyline id="SVGID_39_" points="1295.6,1134.3 892.5,1372 905.5,1549.3 892.5,1372 1295.6,1134.3 									"/>
								</defs>
								<clipPath id="SVGID_40_">
									<use xlink:href="#SVGID_39_"  style="overflow:visible;"/>
								</clipPath>
								<g style="clip-path:url(#SVGID_40_);">
									
										<image style="overflow:visible;" width="404" height="416" xlink:href="EC997D53.png"  transform="matrix(1 0 0 1 892.4969 1134.2932)">
									</image>
								</g>
							</g>
						</g>
					</g>
				</g>
			</g>
			<g>
				<polygon class="st13" points="892.5,1372 892.5,1372 905.5,1549.3 906.1,1549 893.1,1371.9 				"/>
				<g class="st1">
					<defs>
						<polygon id="SVGID_41_" class="st1" points="892.5,1372 892.5,1372 905.5,1549.3 906.1,1549 893.1,1371.9 						"/>
					</defs>
					<clipPath id="SVGID_42_">
						<use xlink:href="#SVGID_41_"  style="overflow:visible;"/>
					</clipPath>
					<g class="st27">
						<g>
							<g>
								<defs>
									<polyline id="SVGID_43_" points="905.5,1549.3 892.5,1372 893.1,1371.9 906.1,1549 905.5,1549.3 									"/>
								</defs>
								<clipPath id="SVGID_44_">
									<use xlink:href="#SVGID_43_"  style="overflow:visible;"/>
								</clipPath>
								<g style="clip-path:url(#SVGID_44_);">
									
										<image style="overflow:visible;" width="14" height="178" xlink:href="EC997D55.png"  transform="matrix(1 0 0 1 892.5063 1371.8636)">
									</image>
								</g>
							</g>
						</g>
					</g>
				</g>
			</g>
			<g>
				<polygon class="st13" points="1295.3,1314.9 892.5,1372 1295.6,1134.3 				"/>
				<g class="st1">
					<defs>
						<polygon id="SVGID_45_" class="st1" points="1295.3,1314.9 892.5,1372 1295.6,1134.3 						"/>
					</defs>
					<clipPath id="SVGID_46_">
						<use xlink:href="#SVGID_45_"  style="overflow:visible;"/>
					</clipPath>
					<g class="st28">
						<g>
							<g>
								<defs>
									<polyline id="SVGID_47_" points="1295.3,1314.9 892.5,1372 1295.6,1134.3 1295.3,1314.9 									"/>
								</defs>
								<clipPath id="SVGID_48_">
									<use xlink:href="#SVGID_47_"  style="overflow:visible;"/>
								</clipPath>
								<g style="clip-path:url(#SVGID_48_);">
									
										<image style="overflow:visible;" width="404" height="238" xlink:href="EC997D57.png"  transform="matrix(1 0 0 1 892.5056 1134.2963)">
									</image>
								</g>
							</g>
						</g>
					</g>
				</g>
			</g>
			<g>
				<polygon class="st13" points="906.1,1549 892.5,1541.5 879.4,1364.4 893.1,1371.9 				"/>
			</g>
			<g>
				<polygon class="st13" points="905.5,1549.3 891.9,1541.9 878.8,1364.5 892.5,1372 				"/>
			</g>
			<g>
				<polygon class="st13" points="905.5,1549.3 891.8,1541.9 878.8,1364.5 892.5,1372 				"/>
			</g>
			<g>
				<polygon class="st13" points="892.5,1372 878.8,1364.5 1281.9,1126.9 1295.6,1134.3 				"/>
			</g>
			<g>
				<polygon class="st13" points="877.6,1182.5 863.9,1175.1 843.3,994.6 856.9,1002.1 				"/>
			</g>
			<g>
				<polygon class="st13" points="856.9,1002.1 843.3,994.6 1282.3,932.9 1296,940.4 				"/>
			</g>
		</g>
	</g>
</g>
</svg>
