<?xml version="1.0" encoding="utf-8"?>
<!-- Generator: Adobe Illustrator 24.0.1, SVG Export Plug-In . SVG Version: 6.00 Build 0)  -->
<svg version="1.1" id="Layer_1" xmlns="http://www.w3.org/2000/svg" xmlns:xlink="http://www.w3.org/1999/xlink" x="0px" y="0px"
	 viewBox="0 0 1773 2500" style="enable-background:new 0 0 1773 2500;" xml:space="preserve">
<style type="text/css">
	.st0{enable-background:new    ;}
	.st1{fill:#822C16;}
	.st2{fill:#772814;}
	.st3{fill:#EA5142;}
	.st4{fill:#7B2B23;}
	.st5{fill:#862F26;}
	.st6{fill:#802B15;}
	.st7{fill:#752713;}
	.st8{fill:#DF4B25;}
	.st9{fill:#883917;}
	.st10{fill:#7C3415;}
	.st11{fill:#EC6328;}
	.st12{fill:#C2C2C2;}
	.st13{fill:#B5B5B5;}
	.st14{fill:#F4F4F4;}
	.st15{fill:#B8B8B8;}
	.st16{fill:#C8C8C8;}
	.st17{fill:#ACACAC;}
	.st18{fill:#E1E1E1;}
	.st19{fill:#A5A5A5;}
	.st20{fill:#B3B3B3;}
</style>
<g>
	<g>
		<g class="st0">
			<g>
				<polygon class="st1" points="895.1,2460.6 872.3,2448.2 1516.6,2165 1539.4,2177.4 				"/>
			</g>
			<g>
				<polygon class="st2" points="1539.4,2177.4 1516.6,2165 1663,412.8 1685.8,425.2 				"/>
			</g>
			<g>
				<polygon class="st3" points="1685.8,425.2 1539.4,2177.4 895.1,2460.6 899.6,535.7 				"/>
			</g>
			<g>
				<polygon class="st4" points="895.1,2460.6 872.3,2448.2 876.8,523.3 899.6,535.7 				"/>
			</g>
			<g>
				<polygon class="st5" points="899.6,535.7 876.8,523.3 1663,412.8 1685.8,425.2 				"/>
			</g>
			<g>
				<polygon class="st6" points="113.4,646.2 90.6,633.8 876.8,523.3 899.6,535.7 				"/>
			</g>
			<g>
				<polygon class="st7" points="253.3,2358.4 230.5,2346 90.6,633.8 113.4,646.2 				"/>
			</g>
			<g>
				<polygon class="st8" points="1685.8,425.2 1539.4,2177.4 895.1,2460.6 253.3,2358.4 113.4,646.2 899.6,535.7 895.1,2460.6 
					1539.4,2177.4 				"/>
			</g>
		</g>
	</g>
</g>
<g>
	<g>
		<g class="st0">
			<g>
				<polygon class="st9" points="939,722.4 916.2,710 1559,619.7 1581.8,632 				"/>
			</g>
			<g>
				<polygon class="st10" points="936,2358.2 913.2,2345.8 916.2,710 939,722.4 				"/>
			</g>
			<g>
				<polygon class="st11" points="939,722.4 1581.8,632 1456.6,2129.4 936,2358.2 				"/>
			</g>
		</g>
	</g>
</g>
<g>
	
		<image style="overflow:visible;opacity:0.52;" width="1039" height="1316" xlink:href="87B2C757.png"  transform="matrix(1 0 0 1 384 803)">
	</image>
	<g>
		<g>
			<g>
				<g class="st0">
					<g>
						<polygon class="st12" points="940.9,893.6 918.1,881.2 1411.2,811.9 1434,824.3 						"/>
					</g>
					<g>
						<polygon class="st13" points="941.1,1105.9 918.3,1093.5 918.1,881.2 940.9,893.6 						"/>
					</g>
					<g>
						<polygon class="st14" points="940.9,893.6 1434,824.3 1429.2,881.9 1420,990.9 1415.9,1039.2 941.1,1105.9 						"/>
					</g>
				</g>
				<g class="st0">
					<g>
						<polygon class="st15" points="1158.7,1780.8 1135.9,1768.4 1159.3,1489.6 1182.1,1502 						"/>
					</g>
					<g>
						<polygon class="st13" points="939.3,2096.3 916.5,2083.9 916.2,1863.2 939,1875.6 						"/>
					</g>
					<g>
						<polygon class="st16" points="939,1875.6 916.2,1863.2 1135.9,1768.4 1158.7,1780.8 						"/>
					</g>
					<g>
						<polygon class="st17" points="719.7,1842.6 696.9,1830.2 916,1863.3 938.8,1875.7 						"/>
					</g>
					<g>
						<polygon class="st13" points="940.3,1536 917.5,1523.6 917.3,1311.2 940.1,1323.6 						"/>
					</g>
					<g>
						<polygon class="st12" points="940.1,1323.6 917.3,1311.2 1374.8,1246.9 1397.6,1259.3 						"/>
					</g>
					<g>
						<polygon class="st14" points="940.3,1536 940.1,1323.6 1397.6,1259.3 1392.7,1317 1345.4,1882.9 1342.4,1919.2 939.3,2096.3 
							939,1875.6 1158.7,1780.8 1182.1,1502 						"/>
					</g>
					<g>
						<polygon class="st18" points="938.8,1875.7 938.6,2096.6 535.4,2032.6 508.4,1702.9 706,1675.1 719.7,1842.6 						"/>
					</g>
					<g>
						<polygon class="st19" points="535.4,2032.6 512.6,2020.2 485.6,1690.5 508.4,1702.9 						"/>
					</g>
					<g>
						<polygon class="st20" points="508.4,1702.9 485.6,1690.5 683.2,1662.7 706,1675.1 						"/>
					</g>
					<g>
						<polygon class="st20" points="680.2,1360.1 657.4,1347.7 917.3,1311.2 940.1,1323.6 						"/>
					</g>
					<g>
						<polygon class="st19" points="499.8,1597.9 477,1585.5 429.7,1006.8 452.5,1019.2 						"/>
					</g>
					<g>
						<polygon class="st18" points="940.1,1323.6 939.7,1536.1 499.8,1597.9 452.5,1019.2 447.9,962.8 940.9,893.6 940.5,1105.5 
							662.7,1145.1 680.2,1360.1 						"/>
					</g>
					<g>
						<polygon class="st20" points="447.9,962.8 425.1,950.4 918.1,881.2 940.9,893.6 						"/>
					</g>
					<g>
						<polygon class="st19" points="452.5,1019.2 429.7,1006.8 425.1,950.4 447.9,962.8 						"/>
					</g>
				</g>
			</g>
		</g>
	</g>
</g>
<path d="M183,5h112.4v111h102.8V5h112.4v336.3H398.2V228.7H295.4v112.6H183V5L183,5z M658.4,116.5h-98.9V5h310.3v111.5h-99v224.8
	H658.4V116.5L658.4,116.5L658.4,116.5z M919.1,5h117.2l72.1,118.2l72-118.2h117.2v336.3h-111.9V174.6l-77.3,119.6h-1.9l-77.4-119.6
	v166.7h-110L919.1,5L919.1,5z M1353.6,5H1466v225.1h158.1v111.1h-270.5V5L1353.6,5z"/>
</svg>
