<?xml version="1.0" encoding="utf-8"?>
<!-- Generator: Adobe Illustrator 24.0.1, SVG Export Plug-In . SVG Version: 6.00 Build 0)  -->
<svg version="1.1" id="Layer_1" xmlns="http://www.w3.org/2000/svg" xmlns:xlink="http://www.w3.org/1999/xlink" x="0px" y="0px"
	 viewBox="0 0 480 480" style="enable-background:new 0 0 480 480;" xml:space="preserve">
<style type="text/css">
	.st0{enable-background:new    ;}
	.st1{fill:#845E19;}
	.st2{fill:#795616;}
	.st3{fill:#EFAA48;}
	.st4{fill:#7E5A26;}
	.st5{fill:#89622A;}
	.st6{fill:#825C18;}
	.st7{fill:#765416;}
	.st8{fill:#E2A02A;}
	.st9{fill:#7F6412;}
	.st10{fill:#896C13;}
	.st11{fill:#EEBB21;}
	.st12{fill:#999999;}
	.st13{fill:#808080;}
	.st14{fill:#828282;}
	.st15{fill:#9A9A9A;}
	.st16{fill:#EFEFEF;}
	.st17{fill:#979796;}
	.st18{fill:#7F7E7E;}
	.st19{fill:#EAE9E8;}
	.st20{fill:#8D8D8D;}
	.st21{fill:#8B8B8B;}
	.st22{fill:#767676;}
	.st23{fill:#8E8E8E;}
	.st24{fill:#DCDCDC;}
	.st25{fill:none;}
	.st26{font-family:'Arial-Black';}
	.st27{font-size:90px;}
</style>
<g>
	<g>
		<g class="st0">
			<g>
				<polygon class="st1" points="253.1,476.4 246.2,472.7 362,418 368.9,421.7 				"/>
			</g>
			<g>
				<polygon class="st2" points="368.9,421.7 362,418 398.2,86.3 405.1,90.1 				"/>
			</g>
			<g>
				<polygon class="st3" points="405.1,90.1 368.9,421.7 253.1,476.4 244.9,112.6 				"/>
			</g>
			<g>
				<polygon class="st4" points="253.1,476.4 246.2,472.7 238,108.9 244.9,112.6 				"/>
			</g>
			<g>
				<polygon class="st5" points="244.9,112.6 238,108.9 398.2,86.3 405.1,90.1 				"/>
			</g>
			<g>
				<polygon class="st6" points="102.5,132.6 95.6,128.9 238,108.9 244.9,112.6 				"/>
			</g>
			<g>
				<polygon class="st7" points="128.5,455.5 121.7,451.8 95.6,128.9 102.5,132.6 				"/>
			</g>
			<g>
				<polygon class="st8" points="405.1,90.1 368.9,421.7 253.1,476.4 128.5,455.5 102.5,132.6 244.9,112.6 253.1,476.4 368.9,421.7 
									"/>
			</g>
		</g>
	</g>
</g>
<g>
	<g>
		<g class="st0">
			<g>
				<polygon class="st9" points="255.5,454.1 250.9,451.6 251.5,145.6 256.1,148 				"/>
			</g>
			<g>
				<polygon class="st10" points="256.1,148 251.5,145.6 372.8,128.5 377.4,131 				"/>
			</g>
			<g>
				<polygon class="st11" points="377.4,131 346.8,411 255.5,454.1 256.1,148 				"/>
			</g>
		</g>
	</g>
</g>
<g id="number">
	
		<image style="overflow:visible;opacity:0.61;" width="194" height="271" xlink:href="751649A1.png"  transform="matrix(1 0 0 1 152 158)">
	</image>
	<g>
		<g>
			<g>
				<g class="st0">
					<g>
						<polygon class="st12" points="252.5,375.9 248,373.4 282.1,357.3 286.6,359.7 						"/>
					</g>
					<g>
						<polygon class="st13" points="252.5,416 247.9,413.5 248,373.4 252.5,375.9 						"/>
					</g>
					<g>
						<polygon class="st14" points="286.6,359.7 282.1,357.3 288.8,295.2 293.3,297.7 						"/>
					</g>
					<g>
						<polygon class="st13" points="305.6,228.8 301,226.3 298.7,207.4 303.3,209.9 						"/>
					</g>
					<g>
						<polygon class="st15" points="252.7,265 248.2,262.5 328.9,251.2 333.5,253.7 						"/>
					</g>
					<g>
						<polygon class="st13" points="252.7,303.4 248.1,301 248.2,262.5 252.7,265 						"/>
					</g>
					<g>
						<polygon class="st16" points="333.5,253.7 319.2,384.5 252.5,416 252.5,375.9 286.6,359.7 293.3,297.7 252.7,303.4 252.7,265 
													"/>
					</g>
					<g>
						<polygon class="st17" points="214.5,270.4 209.9,267.9 248.2,262.5 252.7,265 						"/>
					</g>
					<g>
						<polygon class="st15" points="252.9,178.6 248.3,176.1 329.6,164.7 334.1,167.1 						"/>
					</g>
					<g>
						<polygon class="st13" points="252.8,217 248.3,214.5 248.3,176.1 252.9,178.6 						"/>
					</g>
					<g>
						<polygon class="st16" points="334.1,167.1 335.6,179 341.1,223.8 305.6,228.8 303.3,209.9 252.8,217 252.9,178.6 						"/>
					</g>
					<g>
						<polygon class="st18" points="170.7,315 166.1,312.5 173.9,186.5 178.5,189 						"/>
					</g>
					<g>
						<polygon class="st19" points="252.9,178.6 252.8,217 217.5,221.9 214.5,270.4 252.7,265 252.7,303.4 170.7,315 178.5,189 
													"/>
					</g>
					<g>
						<polygon class="st17" points="178.5,189 173.9,186.5 248.3,176.1 252.9,178.6 						"/>
					</g>
				</g>
				<g class="st0">
					<g>
						<polygon class="st20" points="251.6,376.3 247.1,373.8 248,373.4 252.5,375.9 						"/>
					</g>
					<g>
						<polygon class="st21" points="211.2,369.5 206.6,367 247.1,373.8 251.6,376.3 						"/>
					</g>
					<g>
						<polygon class="st22" points="177.8,403.8 173.3,401.4 168.4,341 172.9,343.5 						"/>
					</g>
					<g>
						<polygon class="st23" points="172.9,343.5 168.4,341 204.2,335.9 208.7,338.4 						"/>
					</g>
					<g>
						<polygon class="st24" points="208.7,338.4 211.2,369.5 251.6,376.3 252.5,375.9 252.5,416 251.9,416.3 177.8,403.8 
							172.9,343.5 						"/>
					</g>
				</g>
			</g>
		</g>
	</g>
</g>
<rect x="175" y="18.9" class="st25" width="247.5" height="67.2"/>
<text transform="matrix(1 0 0 1 174.9574 83.325)" class="st26 st27">JS</text>
</svg>
