<svg id="Layer_1" data-name="Layer 1" xmlns="http://www.w3.org/2000/svg" viewBox="0 0 512 512"><defs><style>.cls-1{fill:#f5cb5c;}</style></defs><title>linkdnav</title><path class="cls-1" d="M160,423H90V197h70Zm7-298a41,41,0,1,0-41,41A41,41,0,0,0,167,125ZM422,298.66C422,238,409.18,193,338.31,193c-34.05,0-56.91,17-66.24,34.74H272V197H204V423h68V310.79c0-29.39,7.48-57.86,43.91-57.86,35.93,0,37.09,33.61,37.09,59.73V423h69ZM512,452V60A60.06,60.06,0,0,0,452,0H60A60.06,60.06,0,0,0,0,60V452a60.06,60.06,0,0,0,60,60H452A60.06,60.06,0,0,0,512,452ZM452,40a20,20,0,0,1,20,20V452a20,20,0,0,1-20,20H60a20,20,0,0,1-20-20V60A20,20,0,0,1,60,40Z"/></svg>