<svg id="Capa_1" data-name="Capa 1" xmlns="http://www.w3.org/2000/svg" viewBox="0 0 512 333.98"><defs><style>.cls-1{fill:#f5cb5c;}</style></defs><title>mailnav</title><path class="cls-1" d="M511.7,105.88l-180,149.87L512,375.74V109.25A20.8,20.8,0,0,0,511.7,105.88Z" transform="translate(0 -89.01)"/><path class="cls-1" d="M315.48,269.26l-22.69,18.9a57.5,57.5,0,0,1-73.58,0l-22.69-18.9L0,400.05v2.7A20.26,20.26,0,0,0,20.24,423H491.76A20.26,20.26,0,0,0,512,402.75v-2.7Z" transform="translate(0 -89.01)"/><path class="cls-1" d="M491.83,89H20.17a3.09,3.09,0,0,0-1.9,5.48L203.55,248.78l.07.05,28.54,23.77a37.24,37.24,0,0,0,47.68,0L493.73,94.49A3.09,3.09,0,0,0,491.83,89Z" transform="translate(0 -89.01)"/><path class="cls-1" d="M.31,105.88A19.74,19.74,0,0,0,0,109.25V375.74l180.29-120Z" transform="translate(0 -89.01)"/></svg>